<svg width="756" height="790" viewBox="0 0 756 790" fill="none" xmlns="http://www.w3.org/2000/svg">
<path d="M378.006 376.117C586.346 376.117 755.239 292.116 755.239 188.495C755.239 84.8739 586.346 0.872559 378.006 0.872559C169.667 0.872559 0.774414 84.8739 0.774414 188.495C0.774414 292.116 169.667 376.117 378.006 376.117Z" fill="#6CA8D0"/>
<path d="M378.006 597.889C586.346 597.889 755.239 548.243 755.239 487.003C755.239 425.762 586.346 376.117 378.006 376.117C169.667 376.117 0.774414 425.762 0.774414 487.003C0.774414 548.243 169.667 597.889 378.006 597.889Z" fill="#6CA8D0"/>
<path d="M378.006 725.247C586.346 725.247 755.239 696.737 755.239 661.568C755.239 626.399 586.346 597.889 378.006 597.889C169.667 597.889 0.774414 626.399 0.774414 661.568C0.774414 696.737 169.667 725.247 378.006 725.247Z" fill="#6CA8D0"/>
<path d="M378.006 789.127C586.346 789.127 755.239 774.827 755.239 757.187C755.239 739.547 586.346 725.247 378.006 725.247C169.667 725.247 0.774414 739.547 0.774414 757.187C0.774414 774.827 169.667 789.127 378.006 789.127Z" fill="#6CA8D0"/>
</svg>
