<svg width="176" height="203" viewBox="0 0 176 203" fill="none" xmlns="http://www.w3.org/2000/svg">
<path d="M158.096 4.65017L174.232 39.6195C176.083 43.6313 174.331 48.3841 170.319 50.2353L120.5 73.3862H166.605C171.023 73.3862 174.605 76.9679 174.605 81.3862V119.899C174.605 124.317 171.023 127.899 166.605 127.899H120.926L170.662 152.759C174.614 154.735 176.216 159.54 174.24 163.492L157.021 197.941C155.046 201.893 150.24 203.495 146.288 201.52L8.50016 131.886C8.50016 131.886 1.00651 127.886 1.00651 122.886L-6.10352e-05 77.3861C-6.10352e-05 77.3861 -6.10352e-05 68.3861 5.73721 66.1411L147.48 0.737928C151.492 -1.1132 156.245 0.638371 158.096 4.65017Z" fill="#FF8181"/>
</svg>
