<svg width="1000" height="1000" viewBox="0 0 1000 1000" fill="none" xmlns="http://www.w3.org/2000/svg">
<path d="M250.001 250.001H253.458C390.426 248.672 500.532 136.97 500 0.00191912C363.032 -0.529995 251.597 109.576 250.001 246.544C248.671 109.576 136.969 -0.529995 0.00191912 0.00191912C-0.529994 136.97 109.576 248.406 246.544 250.001H250.001C113.033 249.47 1.59766 359.576 0.00191912 496.543V500.001H3.45935C140.427 498.405 250.533 386.969 250.001 250.001C249.469 386.969 359.575 498.405 496.543 500.001H500V496.543C498.404 359.576 386.969 249.47 250.001 250.001Z" fill="#28669C" fill-opacity="0.3"/>
<path d="M500 500.001C363.032 499.469 251.597 609.575 250.001 746.543V750H253.458C390.426 748.405 500.532 636.969 500 500.001Z" fill="#28669C" fill-opacity="0.3"/>
<path d="M250.001 750V746.543C248.671 609.575 136.969 499.469 0.00191912 500.001C-0.529994 636.969 109.576 748.405 246.544 750H250.001C113.033 749.469 1.59766 859.575 0.00191912 996.543V1000H3.45935C140.427 998.404 250.533 886.968 250.001 750C249.469 886.968 359.575 998.404 496.543 1000H500V996.543C498.404 859.575 386.969 749.469 250.001 750Z" fill="#28669C" fill-opacity="0.3"/>
<path d="M749.999 750V746.543C748.669 609.575 636.968 499.469 500 500.001C499.468 636.969 609.574 748.405 746.542 750H749.999C613.031 749.469 501.596 859.575 500 996.543V1000H503.457C640.425 998.404 750.531 886.968 749.999 750C749.467 886.968 859.573 998.404 996.541 1000H999.998V996.543C998.402 859.575 886.967 749.469 749.999 750Z" fill="#28669C" fill-opacity="0.3"/>
</svg>
