<svg width="400" height="300" viewBox="0 0 400 300" fill="none" xmlns="http://www.w3.org/2000/svg">
<path d="M380 0C391.046 0 400 8.95431 400 20V80C400 91.0457 391.046 100 380 100H320C308.954 100 300 108.954 300 120V180C300 191.046 291.046 200 280 200H120C108.954 200 100 208.954 100 220V280C100 291.046 91.0457 300 80 300H20C8.95431 300 1.61075e-07 291.046 0 280V220C0 208.954 8.95431 200 20 200H80L80.5166 199.993C91.3235 199.719 100 190.873 100 180V120C100 108.954 108.954 100 120 100H280L280.517 99.9932C291.324 99.7192 300 90.873 300 80V20C300 8.95431 308.954 1.61064e-07 320 0H380Z" fill="#A3A3A3"/>
</svg>
