<svg width="70" height="70" viewBox="0 0 70 70" fill="none" xmlns="http://www.w3.org/2000/svg">
<path d="M35 0C44.665 0 53.415 3.91751 59.7487 10.2513C66.0825 16.585 70 25.335 70 35C60.335 35 51.585 31.0825 45.2513 24.7487C38.9175 18.415 35 9.66498 35 0Z" fill="white"/>
<path d="M70 35C70 44.665 66.0825 53.415 59.7487 59.7487C53.415 66.0825 44.665 70 35 70C35 60.335 38.9175 51.585 45.2513 45.2513C51.585 38.9175 60.335 35 70 35Z" fill="white"/>
<path d="M35 70C25.335 70 16.585 66.0825 10.2513 59.7487C3.9175 53.415 -8.44939e-07 44.665 0 35C9.66499 35 18.415 38.9175 24.7487 45.2513C31.0825 51.585 35 60.335 35 70Z" fill="white"/>
<path d="M35 0C35 9.66498 31.0825 18.415 24.7487 24.7487C18.415 31.0825 9.66498 35 0 35C-4.2247e-07 25.335 3.9175 16.585 10.2513 10.2513C16.585 3.91751 25.335 4.2247e-07 35 0Z" fill="white"/>
</svg>
