<svg width="283" height="800" viewBox="0 0 283 800" fill="none" xmlns="http://www.w3.org/2000/svg">
<path d="M141.5 920V735C141.5 720 156.5 720 156.5 720H266.5C266.5 720 281.5 720 281.5 705V655C281.5 640 266.5 640 266.5 640H141.5H16.5C16.5 640 1.5 640 1.5 625V575C1.5 560 16.5 560 16.5 560H266.5C266.5 560 281.5 560 281.5 545V495C281.5 480 266.5 480 266.5 480H141.5H16.5C16.5 480 1.5 480 1.5 465V415C1.5 400 16.5 400 16.5 400H266.5C266.5 400 281.5 400 281.5 385V335C281.5 320 266.5 320 266.5 320H141.5H16.5C16.5 320 1.5 320 1.5 305V255C1.5 240 16.5 240 16.5 240H266.5C266.5 240 281.5 240 281.5 225V175C281.5 160 266.5 160 266.5 160H141.5H16.5C16.5 160 1.5 160 1.5 145V95C1.5 80 16.5 80 16.5 80H126.5C126.5 80 141.5 80 141.5 65V-120" stroke="#747474" stroke-width="3"/>
</svg>
