<svg width="222" height="60" viewBox="0 0 222 60" fill="none" xmlns="http://www.w3.org/2000/svg">
<g clip-path="url(#clip0_428_495)">
<rect x="6" width="210" height="60" rx="10" fill="white"/>
<circle cx="36" cy="30" r="15" fill="#D3AD3F" fill-opacity="0.5"/>
<mask id="mask0_428_495" style="mask-type:alpha" maskUnits="userSpaceOnUse" x="36" y="15" width="15" height="15">
<path d="M36 15C44.2843 15 51 21.7157 51 30H36V15Z" fill="black"/>
</mask>
<g mask="url(#mask0_428_495)">
<circle cx="36" cy="30" r="15" fill="#D3AD3F"/>
</g>
<circle cx="36" cy="30" r="8.5" fill="#D3AD3F" stroke="white" stroke-width="4"/>
<path d="M79.3381 22.4545V37H77.321L69.9276 26.3324H69.7926V37H67.598V22.4545H69.6293L77.0298 33.1364H77.1648V22.4545H79.3381ZM85.5437 37.2415C84.8524 37.2415 84.2274 37.1136 83.6687 36.858C83.11 36.5975 82.6673 36.2211 82.3406 35.7287C82.0186 35.2363 81.8576 34.6326 81.8576 33.9176C81.8576 33.3021 81.976 32.7955 82.2127 32.3977C82.4495 32 82.7691 31.6851 83.1715 31.4531C83.574 31.2211 84.0238 31.0459 84.521 30.9276C85.0181 30.8092 85.5247 30.7192 86.0408 30.6577C86.6942 30.5819 87.2246 30.5204 87.6317 30.473C88.0389 30.4209 88.3349 30.3381 88.5195 30.2244C88.7042 30.1108 88.7965 29.9261 88.7965 29.6705V29.6207C88.7965 29.0005 88.6213 28.5199 88.271 28.179C87.9253 27.8381 87.4092 27.6676 86.7227 27.6676C86.0077 27.6676 85.4442 27.8262 85.0323 28.1435C84.6251 28.456 84.3434 28.804 84.1871 29.1875L82.1914 28.733C82.4281 28.0701 82.7738 27.535 83.2283 27.1278C83.6876 26.7159 84.2156 26.4176 84.8121 26.233C85.4087 26.0436 86.0361 25.9489 86.6942 25.9489C87.1299 25.9489 87.5915 26.0009 88.0792 26.1051C88.5716 26.2045 89.0309 26.3892 89.457 26.6591C89.8879 26.929 90.2406 27.3149 90.5153 27.8168C90.7899 28.3139 90.9272 28.9602 90.9272 29.7557V37H88.8533V35.5085H88.7681C88.6308 35.7831 88.4248 36.053 88.1502 36.3182C87.8756 36.5833 87.5228 36.8035 87.092 36.9787C86.6611 37.1539 86.145 37.2415 85.5437 37.2415ZM86.0053 35.5369C86.5924 35.5369 87.0943 35.4209 87.511 35.1889C87.9324 34.9569 88.252 34.6539 88.4698 34.2798C88.6924 33.901 88.8036 33.4962 88.8036 33.0653V31.6591C88.7279 31.7348 88.5811 31.8059 88.3633 31.8722C88.1502 31.9337 87.9064 31.9882 87.6317 32.0355C87.3571 32.0781 87.0896 32.1184 86.8292 32.1562C86.5688 32.1894 86.351 32.2178 86.1758 32.2415C85.7638 32.2936 85.3874 32.3812 85.0465 32.5043C84.7103 32.6274 84.4405 32.8049 84.2369 33.0369C84.038 33.2642 83.9386 33.5672 83.9386 33.946C83.9386 34.4716 84.1327 34.8693 84.521 35.1392C84.9092 35.4044 85.404 35.5369 86.0053 35.5369ZM93.7557 37V26.0909H95.794V27.8665H95.929C96.1563 27.2652 96.5279 26.7964 97.044 26.4602C97.5601 26.1193 98.178 25.9489 98.8977 25.9489C99.6269 25.9489 100.238 26.1193 100.73 26.4602C101.227 26.8011 101.594 27.2699 101.831 27.8665H101.945C102.205 27.2841 102.619 26.8201 103.188 26.4744C103.756 26.1241 104.433 25.9489 105.219 25.9489C106.208 25.9489 107.016 26.259 107.641 26.8793C108.27 27.4995 108.585 28.4347 108.585 29.6847V37H106.462V29.8835C106.462 29.1449 106.26 28.6098 105.858 28.2784C105.455 27.947 104.975 27.7812 104.416 27.7812C103.725 27.7812 103.188 27.9943 102.804 28.4205C102.42 28.8419 102.229 29.384 102.229 30.0469V37H100.112V29.7486C100.112 29.1567 99.9276 28.6809 99.5582 28.321C99.1889 27.9612 98.7083 27.7812 98.1165 27.7812C97.714 27.7812 97.3423 27.8878 97.0014 28.1009C96.6652 28.3092 96.393 28.6004 96.1847 28.9744C95.9811 29.3485 95.8793 29.7817 95.8793 30.2741V37H93.7557ZM116.133 37.2202C115.058 37.2202 114.133 36.9905 113.356 36.5312C112.584 36.0672 111.988 35.4162 111.566 34.5781C111.15 33.7353 110.941 32.7481 110.941 31.6165C110.941 30.4991 111.15 29.5142 111.566 28.6619C111.988 27.8097 112.575 27.1444 113.328 26.6662C114.085 26.188 114.971 25.9489 115.984 25.9489C116.6 25.9489 117.196 26.0507 117.774 26.2543C118.351 26.4579 118.87 26.7775 119.329 27.2131C119.788 27.6487 120.151 28.2145 120.416 28.9105C120.681 29.6018 120.814 30.4422 120.814 31.4318V32.1847H112.142V30.5938H118.733C118.733 30.035 118.619 29.5402 118.392 29.1094C118.164 28.6738 117.845 28.3305 117.433 28.0795C117.026 27.8286 116.547 27.7031 115.998 27.7031C115.402 27.7031 114.881 27.8499 114.436 28.1435C113.995 28.4323 113.654 28.8111 113.413 29.2798C113.176 29.7438 113.058 30.2481 113.058 30.7926V32.0355C113.058 32.7647 113.186 33.3849 113.441 33.8963C113.702 34.4077 114.064 34.7983 114.528 35.0682C114.992 35.3333 115.534 35.4659 116.154 35.4659C116.557 35.4659 116.924 35.4091 117.255 35.2955C117.587 35.1771 117.873 35.0019 118.115 34.7699C118.356 34.5379 118.541 34.2514 118.669 33.9105L120.679 34.2727C120.518 34.8646 120.229 35.383 119.812 35.8281C119.4 36.2685 118.882 36.6117 118.257 36.858C117.636 37.0994 116.929 37.2202 116.133 37.2202Z" fill="black"/>
<path d="M151.295 23.8636V35.5H149.886V25.3409H149.818L146.977 27.2273V25.7955L149.886 23.8636H151.295ZM154.665 35.5V26.7727H155.96V28.1364H156.074C156.256 27.6705 156.549 27.3087 156.955 27.0511C157.36 26.7898 157.847 26.6591 158.415 26.6591C158.991 26.6591 159.47 26.7898 159.852 27.0511C160.239 27.3087 160.54 27.6705 160.756 28.1364H160.847C161.07 27.6856 161.405 27.3277 161.852 27.0625C162.299 26.7936 162.835 26.6591 163.46 26.6591C164.241 26.6591 164.879 26.9034 165.375 27.392C165.871 27.8769 166.119 28.6326 166.119 29.6591V35.5H164.778V29.6591C164.778 29.0152 164.602 28.5549 164.25 28.2784C163.898 28.0019 163.483 27.8636 163.006 27.8636C162.392 27.8636 161.917 28.0492 161.58 28.4205C161.242 28.7879 161.074 29.2538 161.074 29.8182V35.5H159.71V29.5227C159.71 29.0265 159.549 28.6269 159.227 28.3239C158.905 28.017 158.491 27.8636 157.983 27.8636C157.634 27.8636 157.309 27.9564 157.006 28.142C156.706 28.3277 156.464 28.5852 156.278 28.9148C156.097 29.2405 156.006 29.6174 156.006 30.0455V35.5H154.665ZM172.776 33.1136V31.9545L177.889 23.8636H178.73V25.6591H178.162L174.298 31.7727V31.8636H181.185V33.1136H172.776ZM178.253 35.5V32.7614V32.2216V23.8636H179.594V35.5H178.253ZM183.314 35.5V34.4773L187.155 30.2727C187.606 29.7803 187.977 29.3523 188.268 28.9886C188.56 28.6212 188.776 28.2765 188.916 27.9545C189.06 27.6288 189.132 27.2879 189.132 26.9318C189.132 26.5227 189.034 26.1686 188.837 25.8693C188.643 25.5701 188.378 25.339 188.041 25.1761C187.704 25.0133 187.325 24.9318 186.905 24.9318C186.458 24.9318 186.068 25.0246 185.734 25.2102C185.405 25.392 185.149 25.6477 184.967 25.9773C184.789 26.3068 184.7 26.6932 184.7 27.1364H183.359C183.359 26.4545 183.517 25.8561 183.831 25.3409C184.145 24.8258 184.573 24.4242 185.115 24.1364C185.661 23.8485 186.272 23.7045 186.95 23.7045C187.632 23.7045 188.236 23.8485 188.763 24.1364C189.289 24.4242 189.702 24.8125 190.001 25.3011C190.301 25.7898 190.45 26.3333 190.45 26.9318C190.45 27.3598 190.373 27.7784 190.217 28.1875C190.066 28.5928 189.801 29.0455 189.422 29.5455C189.047 30.0417 188.526 30.6477 187.859 31.3636L185.246 34.1591V34.25H190.655V35.5H183.314ZM199.206 28.7273L198.001 29.0682C197.926 28.8674 197.814 28.6723 197.666 28.483C197.522 28.2898 197.325 28.1307 197.075 28.0057C196.825 27.8807 196.505 27.8182 196.115 27.8182C195.581 27.8182 195.136 27.9413 194.78 28.1875C194.428 28.4299 194.251 28.7386 194.251 29.1136C194.251 29.447 194.373 29.7102 194.615 29.9034C194.857 30.0966 195.236 30.2576 195.751 30.3864L197.047 30.7045C197.827 30.8939 198.409 31.1837 198.791 31.5739C199.174 31.9602 199.365 32.4583 199.365 33.0682C199.365 33.5682 199.221 34.0152 198.933 34.4091C198.649 34.803 198.251 35.1136 197.74 35.3409C197.229 35.5682 196.634 35.6818 195.956 35.6818C195.066 35.6818 194.329 35.4886 193.746 35.1023C193.162 34.7159 192.793 34.1515 192.638 33.4091L193.911 33.0909C194.032 33.5606 194.261 33.9129 194.598 34.1477C194.939 34.3826 195.384 34.5 195.933 34.5C196.558 34.5 197.054 34.3674 197.422 34.1023C197.793 33.8333 197.979 33.5114 197.979 33.1364C197.979 32.8333 197.873 32.5795 197.661 32.375C197.448 32.1667 197.123 32.0114 196.683 31.9091L195.229 31.5682C194.429 31.3788 193.842 31.0852 193.467 30.6875C193.096 30.286 192.911 29.7841 192.911 29.1818C192.911 28.6894 193.049 28.2538 193.325 27.875C193.606 27.4962 193.986 27.1989 194.467 26.983C194.952 26.767 195.501 26.6591 196.115 26.6591C196.979 26.6591 197.657 26.8485 198.149 27.2273C198.645 27.6061 198.998 28.1061 199.206 28.7273Z" fill="#A3A3A3"/>
<circle cx="216" cy="30" r="4.5" fill="#9A9A9A" stroke="white" stroke-width="3"/>
<circle cx="6" cy="30" r="4.5" fill="#9A9A9A" stroke="white" stroke-width="3"/>
</g>
<defs>
<clipPath id="clip0_428_495">
<rect width="222" height="60" fill="white"/>
</clipPath>
</defs>
</svg>
